<?xml version="1.0" encoding="utf-8"?>
<!-- Generator: Adobe Illustrator 22.0.0, SVG Export Plug-In . SVG Version: 6.00 Build 0)  -->
<svg version="1.1" id="Design" xmlns="http://www.w3.org/2000/svg" xmlns:xlink="http://www.w3.org/1999/xlink" x="0px" y="0px"
	 viewBox="0 0 890.1 652" style="enable-background:new 0 0 890.1 652;" xml:space="preserve">
<style type="text/css">
	.st0{fill:#FFFFFF;}
	.st1{fill:#405174;}
</style>
<g>
	
		<ellipse transform="matrix(0.7071 -0.7071 0.7071 0.7071 -109.3866 383.4518)" class="st0" cx="408.2" cy="323.8" rx="283.8" ry="283.8"/>
	<g>
		<g>
			<path class="st1" d="M242.3,411.4h-7.4v23.6h6.7c4.2,0,7.4-1,9.6-3.1c2.2-2.1,3.3-5,3.3-8.9c0-3.6-1.1-6.5-3.2-8.5
				C249.1,412.4,246.1,411.4,242.3,411.4 M242,430.8h-2.1v-15.3h2.7c4.5,0,6.7,2.5,6.7,7.6C249.3,428.2,246.9,430.8,242,430.8"/>
			<polygon class="st1" points="269.2,434.9 282.8,434.9 282.8,430.8 274.2,430.8 274.2,424.7 282.2,424.7 282.2,420.6 274.2,420.6 
				274.2,415.5 282.8,415.5 282.8,411.4 269.2,411.4 			"/>
			<path class="st1" d="M306.6,425.4c-0.7,2.5-1.1,4.2-1.2,5.2c-0.1-0.4-0.2-1.2-0.5-2.3c-0.3-1.1-0.5-2.1-0.8-2.9l-4.4-14h-5
				l8,23.6h5.4l8-23.6h-5L306.6,425.4z"/>
			<polygon class="st1" points="328.9,434.9 342.5,434.9 342.5,430.8 333.9,430.8 333.9,424.7 341.9,424.7 341.9,420.6 333.9,420.6 
				333.9,415.5 342.5,415.5 342.5,411.4 328.9,411.4 			"/>
			<polygon class="st1" points="362.3,411.4 357.3,411.4 357.3,434.9 371.9,434.9 371.9,430.8 362.3,430.8 			"/>
			<path class="st1" d="M396.1,411c-3.6,0-6.4,1-8.3,3.1c-1.9,2.1-2.9,5.1-2.9,9c0,3.9,1,6.9,2.9,9c1.9,2.1,4.7,3.1,8.3,3.1
				c3.6,0,6.4-1.1,8.3-3.1c1.9-2.1,2.9-5.1,2.9-9c0-3.9-1-6.9-2.9-9C402.4,412,399.7,411,396.1,411 M396,431.1c-2,0-3.5-0.7-4.5-2
				c-1-1.3-1.5-3.3-1.5-5.9c0-2.6,0.5-4.6,1.5-6c1-1.3,2.5-2,4.5-2c4,0,5.9,2.7,5.9,8C402,428.4,400,431.1,396,431.1"/>
			<path class="st1" d="M429.5,411.4H422v23.6h5v-8.4h2.1c2.9,0,5.2-0.7,6.8-2c1.6-1.3,2.4-3.3,2.4-5.8c0-2.4-0.7-4.3-2.2-5.5
				C434.6,412,432.4,411.4,429.5,411.4 M432.1,421.5c-0.8,0.6-1.9,0.9-3.4,0.9H427v-7h2.3c1.4,0,2.4,0.3,3,0.8c0.6,0.6,1,1.4,1,2.6
				C433.2,420.1,432.9,420.9,432.1,421.5"/>
			<path class="st1" d="M465.1,429.4L465.1,429.4l-5.7-18h-6.8v23.6h4.5v-11c0-1.3-0.1-3.8-0.3-7.5h0.1l5.7,18.5h4.6l6.1-18.4h0.1
				c-0.1,3-0.2,4.8-0.2,5.5c0,0.7,0,1.3,0,1.8v11.1h4.7v-23.6H471L465.1,429.4z"/>
			<polygon class="st1" points="493.6,434.9 507.2,434.9 507.2,430.8 498.6,430.8 498.6,424.7 506.6,424.7 506.6,420.6 498.6,420.6 
				498.6,415.5 507.2,415.5 507.2,411.4 493.6,411.4 			"/>
			<path class="st1" d="M538.4,422.5c0,1.3,0.1,3.4,0.2,6.5h-0.1l-10.2-17.6H522v23.6h4.5v-11.1c0-1.3-0.1-3.6-0.3-6.7h0.1
				l10.2,17.8h6.3v-23.6h-4.5V422.5z"/>
			<polygon class="st1" points="556.4,415.5 562.8,415.5 562.8,434.9 567.8,434.9 567.8,415.5 574.2,415.5 574.2,411.4 556.4,411.4 
							"/>
			<path class="st1" d="M650.6,361.5l-35.2-78.4l23.5-51.9l-1.3-0.6l-23,50.7l-12.8-28.6h-0.7h-14h-0.7l-48.8,108.7h14.7l14.2-31.5
				l26.2,0l-25.1,55.5l1.3,0.6l39.2-86.7l27.9,62H650.6z M598.7,316.5l-26.2,0l21.6-48.1l13.1,29.3L598.7,316.5z"/>
			<path class="st1" d="M466.3,303.2l32.6-72l-1.3-0.6L486,256.1c-1.2-0.6-2.5-1.2-3.8-1.7c-7.1-2.8-14.7-4.3-22.7-4.3
				c-15.8,0-29.2,5.5-40.2,16.4c-11,11-16.4,24.4-16.4,40.5c0,16,5.5,29.5,16.4,40.5c5.8,5.8,12.3,10,19.5,12.8l-11.4,25.3l1.3,0.6
				l11.5-25.4c6,2.1,12.4,3.2,19.3,3.2c16.5,0,29.9-5.4,40-16.1c9-9,13.5-21.1,13.5-36.4c0-2.6-0.3-5.4-0.8-8.2H466.3z M429.5,338.2
				c-8.1-8.3-12.2-18.7-12.2-31.2c0-12.5,4.1-22.9,12.2-31.2c8.2-8.2,18.3-12.3,30.1-12.3c6.1,0,11.8,1.1,17.1,3.4
				c1.3,0.5,2.5,1.2,3.6,1.8l-35.8,79.1C439,345.9,433.9,342.7,429.5,338.2 M486.7,341.4c-7.2,6.1-16.2,9.1-27.1,9.1
				c-4.9,0-9.5-0.7-13.7-2.1l14.5-32.1h38.7C498,326.9,493.9,335.3,486.7,341.4"/>
			<path class="st1" d="M235.4,312.4c-4-4.6-10.3-8.6-18.9-12l29.8-65.7l-1.3-0.6l-12.3,27.3c-1.6-1.7-3.5-3.4-5.6-4.8
				c-6.1-4.3-13.3-6.4-21.6-6.4c-9.4,0-17.4,2.8-23.9,8.5c-6.4,5.7-9.6,12.5-9.6,20.5c0,11.5,5.8,20.1,17.3,26
				c2.1,1.1,7.6,3.2,16.3,6.4c1.3,0.4,2.5,0.9,3.7,1.3l-15.3,33.8c-1.1-0.7-2.1-1.4-3.1-2.2c-2.2-1.9-4.1-4.1-5.7-6.8
				c-1.6-2.6-2.9-5.6-3.8-8.8l-13.4,5.5c2.6,9.1,7.4,16.3,14.3,21.6c1.9,1.4,3.8,2.6,5.8,3.7L174.8,389l1.3,0.6l13.3-29.3
				c5.1,2.4,10.7,3.6,16.7,3.6c10.1,0,18.8-2.8,25.9-8.5c7-5.8,10.5-13.4,10.5-23C242.4,324.5,240.1,317.8,235.4,312.4 M211.7,298.6
				c-10.9-3.7-17.9-7-21.1-9.7c-2.9-2.7-4.4-6-4.4-9.7c0-4.6,1.9-8.3,5.6-11.1c3.8-3,8.4-4.6,13.8-4.6c5.2,0,9.6,1.3,13.2,4
				c3.3,2.5,5.5,5.5,6.8,9.1l-10.5,23.2C214,299.5,212.9,299,211.7,298.6 M222,345.6c-4.1,3.3-9.3,4.9-15.7,4.9
				c-2.9,0-5.7-0.5-8.4-1.6c-1-0.4-1.9-0.9-2.9-1.4l15.4-34c5.9,2.4,10.1,4.8,12.6,7.2c3.4,3.2,5,7.1,5,11.7
				C228.1,337.9,226.1,342.3,222,345.6"/>
			<path class="st1" d="M368.8,231.2l-1.3-0.6l-22.9,50.7l-12.6-28.1l10-22l-1.3-0.6l-10,22.2h-12.9l9.8-21.6l-1.3-0.6l-70.1,154.9
				l1.3,0.6l11.2-24.6h12.9l-10.9,24l1.3,0.6l25.4-56.1l25.3,0l-25.1,55.5l1.3,0.6l39.3-86.7l27.9,62.1h14.7L345.3,283L368.8,231.2z
				 M328.5,316.5l-25.3,0l21.3-47l12.6,28.1L328.5,316.5z"/>
		</g>
	</g>
</g>
</svg>
